# xmcd CD database file
#
# Track frame offsets:
#	150
#	20936
#	34105
#	52066
#	65472
#	79750
#	93774
#	117149
#	140090
#	157795
#	173924
#	206239
#
# Disc length: 3352 seconds
#
# Revision: 0
# Processed by: cddbd v1.5.2PL0 Copyright (c) Steve Scherf et al.
# Submitted via: CDex 1.70beta2
#
DISCID=a40d160c
DTITLE=New Riders Of The Purple Sage - The Very Best Of - Live
DYEAR=2011
DGENRE=Country
TTITLE0=Henry
TTITLE1=Hello Mary Lou
TTITLE2=Dead Flowers
TTITLE3=Truck Drivin´ Man
TTITLE4=Kick In The Head
TTITLE5=School Days
TTITLE6=Portland Woman (Unissued)
TTITLE7=Glendale Train (Unissued)
TTITLE8=I Don´t Know You (Unissued)
TTITLE9=Louisiana Lady (Unissued)
TTITLE10=All I Ever Wanted (Unissued)
TTITLE11=Dirty Business (Unissued)
EXTD=YEAR: 2011
EXTT0=
EXTT1=
EXTT2=
EXTT3=
EXTT4=
EXTT5=
EXTT6=
EXTT7=
EXTT8=
EXTT9=
EXTT10=
EXTT11=
PLAYORDER=
